<?xml version="1.0" encoding="UTF-8"?>
<svg version="1.1" xmlns="http://www.w3.org/2000/svg" width="633" height="570">
<path d="M0 0 C208.89 0 417.78 0 633 0 C633 188.1 633 376.2 633 570 C424.11 570 215.22 570 0 570 C0 381.9 0 193.8 0 0 Z " fill="#4E5B64" transform="translate(0,0)"/>
<path d="M0 0 C3.42138385 1.17923429 6.84551062 2.18266686 10.33203125 3.1484375 C10.33203125 3.8084375 10.33203125 4.4684375 10.33203125 5.1484375 C11.65203125 5.1484375 12.97203125 5.1484375 14.33203125 5.1484375 C14.33203125 5.8084375 14.33203125 6.4684375 14.33203125 7.1484375 C15.09515625 7.4371875 15.85828125 7.7259375 16.64453125 8.0234375 C19.33203125 9.1484375 19.33203125 9.1484375 22.33203125 11.1484375 C22.33203125 11.8084375 22.33203125 12.4684375 22.33203125 13.1484375 C22.99203125 13.3546875 23.65203125 13.5609375 24.33203125 13.7734375 C28.70252396 15.77657999 34.12127072 18.72691644 36.33203125 23.1484375 C41.80537926 23.64601459 45.86807324 21.3155755 50.70703125 19.0234375 C66.67824699 13.69969892 87.1450329 15.84877778 102.33203125 22.1484375 C104.8030611 22.94496927 107.2821269 23.71711562 109.76953125 24.4609375 C110.84074219 24.78707031 111.91195313 25.11320312 113.015625 25.44921875 C113.78003906 25.67996094 114.54445313 25.91070312 115.33203125 26.1484375 C115.33203125 26.8084375 115.33203125 27.4684375 115.33203125 28.1484375 C116.16734375 28.24125 116.16734375 28.24125 117.01953125 28.3359375 C120.29030174 29.48512713 121.90710595 31.67867006 124.33203125 34.1484375 C125.32962281 35.054035 126.33509265 35.95101828 127.34765625 36.83984375 C140.23860699 48.22364846 150.04869125 61.47081198 155.59375 77.8828125 C157.82675429 82.07784977 160.57272061 83.31211358 164.76953125 85.0859375 C166.22284834 85.75831158 167.67335981 86.43678103 169.12109375 87.12109375 C170.19472168 87.62600342 170.19472168 87.62600342 171.29003906 88.14111328 C185.93802351 95.36703196 196.74811416 106.53144568 205.33203125 120.1484375 C205.95980469 121.08171875 206.58757812 122.015 207.234375 122.9765625 C211.06714663 128.98151761 213.54671149 135.08714835 215.70703125 141.8359375 C216.08347778 143.0118042 216.08347778 143.0118042 216.4675293 144.21142578 C223.83695893 168.6597462 219.53010886 195.40919338 208.01953125 217.7109375 C204.91617565 223.33248206 201.51590908 228.2883774 197.33203125 233.1484375 C196.20474609 234.49228516 196.20474609 234.49228516 195.0546875 235.86328125 C180.27429198 252.88525335 159.43156143 263.28978937 137.33203125 267.1484375 C135.33220645 267.17490931 133.33178785 267.17963938 131.33203125 267.1484375 C131.25726563 266.32601563 131.1825 265.50359375 131.10546875 264.65625 C129.50834705 251.09637357 123.9502333 243.53223373 113.33203125 235.1484375 C112.67203125 234.8184375 112.01203125 234.4884375 111.33203125 234.1484375 C111.33203125 233.4884375 111.33203125 232.8284375 111.33203125 232.1484375 C111.92628906 232.12861816 112.52054687 232.10879883 113.1328125 232.08837891 C115.86627544 231.99219757 118.59906928 231.88290193 121.33203125 231.7734375 C122.73388672 231.72703125 122.73388672 231.72703125 124.1640625 231.6796875 C138.10215761 231.09487232 150.93069303 226.24395113 162.33203125 218.1484375 C162.66203125 217.1584375 162.99203125 216.1684375 163.33203125 215.1484375 C162.38287842 214.96051636 162.38287842 214.96051636 161.41455078 214.76879883 C150.18014436 212.52862283 139.02428277 210.2268905 128.01904297 207.03125 C121.20396549 205.06420245 114.32208641 203.43389982 107.40942383 201.84765625 C102.96004064 200.81740833 98.64000109 199.69001494 94.33203125 198.1484375 C94.18507813 198.87546875 94.038125 199.6025 93.88671875 200.3515625 C91.86331195 209.42200676 88.49459645 217.4045897 83.33203125 225.1484375 C83.37936004 228.36003396 84.53055024 229.35585014 86.7734375 231.69921875 C87.80592979 232.62861244 88.84678609 233.54877357 89.89453125 234.4609375 C90.44101318 234.94876709 90.98749512 235.43659668 91.55053711 235.93920898 C93.13662636 237.35137776 94.73227349 238.75179034 96.33203125 240.1484375 C97.05390625 240.78265625 97.77578125 241.416875 98.51953125 242.0703125 C99.75994589 243.15567531 101.00210918 244.23904321 102.24609375 245.3203125 C104.93889123 247.68029231 107.60918855 250.06452959 110.26953125 252.4609375 C111.20667969 253.30269531 112.14382813 254.14445312 113.109375 255.01171875 C116.05658948 257.84498117 116.51610355 259.42393818 116.64453125 263.3984375 C116.59235533 268.02718693 115.43715726 270.61204399 112.33203125 274.1484375 C108.06395445 276.70395958 104.18750563 277.11320603 99.33203125 276.1484375 C95.85149309 274.36113412 93.1854286 271.80152472 90.33203125 269.1484375 C89.71811523 268.5797998 89.10419922 268.01116211 88.47167969 267.42529297 C84.99275189 264.19698693 81.5374584 260.94590315 78.1015625 257.671875 C75.76837357 255.45774446 73.40102929 253.34252905 70.90625 251.3125 C68.33203125 249.1484375 68.33203125 249.1484375 67.33203125 247.1484375 C63.70831614 248.72691762 61.01834737 250.96999011 58.01953125 253.5234375 C47.63064236 262.1484375 47.63064236 262.1484375 43.33203125 262.1484375 C43.33203125 262.8084375 43.33203125 263.4684375 43.33203125 264.1484375 C42.50960938 264.46296875 41.6871875 264.7775 40.83984375 265.1015625 C39.16535156 265.74351562 39.16535156 265.74351562 37.45703125 266.3984375 C36.26207031 266.85476563 35.06710937 267.31109375 33.8359375 267.78125 C30.99218467 268.89085255 28.19709993 270.06632111 25.39453125 271.2734375 C2.39849539 280.26711766 -29.08577094 278.78506921 -51.734375 268.99609375 C-53.04994427 268.38960195 -54.36098386 267.77321372 -55.66796875 267.1484375 C-56.7660083 266.62419189 -56.7660083 266.62419189 -57.88623047 266.08935547 C-69.10888214 260.5860082 -77.92224707 254.01821197 -86.66796875 245.1484375 C-87.40144531 244.48457031 -88.13492188 243.82070313 -88.890625 243.13671875 C-106.56378714 226.93924808 -116.75535768 200.23182179 -117.953125 176.65234375 C-118.4329125 160.12195093 -116.11867235 143.45555264 -109.66796875 128.1484375 C-109.00796875 127.4884375 -108.34796875 126.8284375 -107.66796875 126.1484375 C-107.06562509 124.66398866 -106.50926402 123.1606484 -105.98046875 121.6484375 C-103.69702219 115.7971057 -100.48399157 111.10626243 -96.66796875 106.1484375 C-95.95125 105.21515625 -95.23453125 104.281875 -94.49609375 103.3203125 C-89.98097327 97.62191906 -85.36792433 92.65373098 -79.66796875 88.1484375 C-78.80816406 87.44074219 -77.94835937 86.73304688 -77.0625 86.00390625 C-53.28917216 67.171324 -24.20044376 60.20565485 5.7578125 63.40771484 C9.71729897 64.00890806 13.50866634 64.9738766 17.33203125 66.1484375 C18.07630371 66.35484863 18.82057617 66.56125977 19.58740234 66.77392578 C25.61477575 68.48119535 31.19021994 70.68613991 36.83203125 73.3984375 C37.65719238 73.7888623 38.48235352 74.17928711 39.33251953 74.58154297 C44.7750628 77.21856304 49.65308558 80.1530029 54.32421875 84.03125 C56.32297057 85.37261367 56.32297057 85.37261367 58.89453125 85.0390625 C61.66422029 84.02706073 62.67192679 83.0852941 64.45703125 80.7734375 C66.31533177 78.41289359 68.20309131 76.26637517 70.33203125 74.1484375 C71.88333733 72.30502799 73.40910568 70.44302541 74.9296875 68.57421875 C75.62384766 67.86845703 75.62384766 67.86845703 76.33203125 67.1484375 C76.99203125 67.1484375 77.65203125 67.1484375 78.33203125 67.1484375 C78.73421875 65.941875 78.73421875 65.941875 79.14453125 64.7109375 C79.53640625 63.8653125 79.92828125 63.0196875 80.33203125 62.1484375 C81.81703125 61.6534375 81.81703125 61.6534375 83.33203125 61.1484375 C83.33203125 60.4884375 83.33203125 59.8284375 83.33203125 59.1484375 C83.99203125 59.1484375 84.65203125 59.1484375 85.33203125 59.1484375 C85.33203125 57.8284375 85.33203125 56.5084375 85.33203125 55.1484375 C74.11117795 51.61386871 57.65150032 53.21311499 47.2890625 58.34765625 C44.30050322 59.57051983 42.34609979 59.15312701 39.33203125 58.1484375 C38.43742187 57.67792969 37.5428125 57.20742187 36.62109375 56.72265625 C33.0828919 55.02919385 29.68848587 54.00978804 25.89453125 53.0234375 C24.63769531 52.69085938 23.38085938 52.35828125 22.0859375 52.015625 C18.36766156 51.07741178 18.36766156 51.07741178 14.640625 50.75390625 C10.91482351 50.07208898 9.57537541 49.12551878 6.83203125 46.5859375 C-9.28943096 33.05845492 -29.38288695 27.42388774 -50.24121094 28.89599609 C-59.92130131 29.90295922 -69.19746166 32.28573898 -77.66796875 37.1484375 C-78.76238281 37.59960938 -79.85679687 38.05078125 -80.984375 38.515625 C-97.43194808 45.4700408 -110.83087512 60.01497684 -118.01171875 76.171875 C-118.9873097 78.81040508 -119.84204327 81.45996577 -120.66796875 84.1484375 C-120.94125 84.84710938 -121.21453125 85.54578125 -121.49609375 86.265625 C-124.32080545 93.60433678 -124.85813373 101.38354881 -125.66796875 109.1484375 C-126.76915039 109.15460083 -126.76915039 109.15460083 -127.89257812 109.16088867 C-147.25856666 109.35036492 -163.70777643 109.99433238 -179.66796875 122.1484375 C-180.46847656 122.75558594 -181.26898438 123.36273438 -182.09375 123.98828125 C-193.09352987 133.02843647 -199.41375322 146.46921291 -202.66796875 160.1484375 C-204.35701625 177.68715241 -201.45049359 195.57530179 -190.01171875 209.5234375 C-182.17781433 218.54030494 -175.05174363 223.46363514 -163.66796875 227.1484375 C-163.66796875 227.8084375 -163.66796875 228.4684375 -163.66796875 229.1484375 C-157.40867008 230.81568398 -151.74170094 231.35955257 -145.28515625 231.17578125 C-143.52345674 231.16198681 -141.76173337 231.15100244 -140 231.14257812 C-137.26188364 231.12215177 -134.52845215 231.08549054 -131.79150391 231.0012207 C-116.475148 230.56685992 -116.475148 230.56685992 -112.05712891 234.43334961 C-110.28052047 237.26688787 -108.96645461 240.07149829 -107.66796875 243.1484375 C-106.33813777 245.12688571 -106.33813777 245.12688571 -104.89453125 246.78515625 C-104.4665625 247.2958667 -104.03859375 247.80657715 -103.59765625 248.33276367 C-102.95183594 249.07683472 -102.95183594 249.07683472 -102.29296875 249.8359375 C-101.82890625 250.37774658 -101.36484375 250.91955566 -100.88671875 251.4777832 C-96.04659739 257.02788821 -90.80769687 262.05528542 -84.66796875 266.1484375 C-84.66796875 266.8084375 -84.66796875 267.4684375 -84.66796875 268.1484375 C-92.83201048 268.21867347 -100.99592108 268.27161513 -109.16019249 268.30387402 C-112.95325952 268.3193749 -116.74611638 268.34031872 -120.5390625 268.37475586 C-156.63727153 268.69392305 -185.03723824 264.10959248 -212.1015625 238.50390625 C-214.62761885 236.06415137 -214.62761885 236.06415137 -217.66796875 234.1484375 C-218.67666936 232.45642357 -219.68025375 230.76012856 -220.6171875 229.02734375 C-221.62925688 227.21765835 -222.73493343 225.53733458 -223.91796875 223.8359375 C-225.66796875 221.1484375 -225.66796875 221.1484375 -225.66796875 219.1484375 C-226.32796875 219.1484375 -226.98796875 219.1484375 -227.66796875 219.1484375 C-240.20695905 192.58016707 -243.02970627 164.07709108 -233.04296875 136.0234375 C-229.9982793 128.01475051 -225.59538569 121.11632185 -220.66796875 114.1484375 C-220.13042969 113.36726563 -219.59289062 112.58609375 -219.0390625 111.78125 C-206.43158976 94.12391761 -184.3296911 80.30290477 -162.91796875 76.68359375 C-160.84048287 76.44663052 -158.75429412 76.28752586 -156.66796875 76.1484375 C-156.38953125 74.3540625 -156.38953125 74.3540625 -156.10546875 72.5234375 C-152.73476921 57.48493185 -142.31065155 42.44633524 -131.9140625 31.51171875 C-130.18123737 29.68848535 -128.59089364 27.87373559 -127.04296875 25.8984375 C-122.54461997 20.68982313 -118.11234164 16.62704246 -111.66796875 14.1484375 C-110.4764992 13.17812239 -109.31194076 12.17432207 -108.16796875 11.1484375 C-105.43474178 8.71037543 -103.17505512 7.31746629 -99.66796875 6.1484375 C-96.72484659 4.73819146 -93.89222406 3.28517854 -91.10546875 1.5859375 C-86.35477908 -1.21575128 -81.7841444 -2.27509206 -76.41796875 -3.28125 C-72.72029825 -4.04809644 -69.12258857 -5.09349846 -65.50390625 -6.16796875 C-43.45111632 -11.4837239 -20.94715126 -7.38204881 0 0 Z " fill="#79B6EC" transform="translate(327.66796875,125.8515625)"/>
<path d="M0 0 C0.74427246 0.20641113 1.48854492 0.41282227 2.25537109 0.62548828 C8.2820943 2.33257367 13.85997992 4.53482197 19.5 7.25 C20.32298584 7.64405029 21.14597168 8.03810059 21.99389648 8.4440918 C38.22984217 16.38319813 38.22984217 16.38319813 41 23 C40.57589844 23.4125 40.15179688 23.825 39.71484375 24.25 C38.83505859 25.11625 38.83505859 25.11625 37.9375 26 C36.9784375 26.94359375 36.9784375 26.94359375 36 27.90625 C33.3984985 30.62969688 31.12618999 33.57945677 28.87109375 36.59375 C27 38 27 38 24.0390625 37.9140625 C20.89224339 36.96758991 19.40038173 35.99146484 16.9375 33.875 C5.17271041 25.14162859 -11.25514793 21.80048909 -25.625 21.8125 C-26.61467773 21.81330566 -27.60435547 21.81411133 -28.62402344 21.81494141 C-35.29453582 21.87102385 -41.51160393 22.39685707 -48 24 C-49.89453897 24.3814854 -51.79036827 24.75662491 -53.6875 25.125 C-55.12520173 25.41567065 -56.56278243 25.70694479 -58 26 C-58 26.66 -58 27.32 -58 28 C-58.55945313 28.17273438 -59.11890625 28.34546875 -59.6953125 28.5234375 C-78.63859399 35.16272265 -92.66901194 50.48725519 -101.53515625 68.0390625 C-102.8362823 70.99146473 -103.94856529 73.95006621 -105 77 C-105.391875 78.06863281 -105.78375 79.13726562 -106.1875 80.23828125 C-108.77115904 88.30324472 -109.38239438 95.81948887 -109.4375 104.25 C-109.4475708 105.24354492 -109.4576416 106.23708984 -109.46801758 107.26074219 C-109.38623991 114.25070262 -108.13751955 120.3610554 -106 127 C-105.67165161 128.06541016 -105.67165161 128.06541016 -105.33666992 129.15234375 C-102.071219 139.40608896 -97.64920938 147.55493578 -91 156 C-90.00806641 157.26650391 -90.00806641 157.26650391 -88.99609375 158.55859375 C-84.33667262 164.14048614 -79.09343858 168.08840556 -73 172 C-72.36578125 172.45117188 -71.7315625 172.90234375 -71.078125 173.3671875 C-64.98600231 177.55877619 -58.04377683 179.89335144 -51 182 C-50.12327637 182.26546631 -49.24655273 182.53093262 -48.34326172 182.80444336 C-40.67636207 184.93961738 -33.55818567 185.42740709 -25.625 185.3125 C-23.92150391 185.31733398 -23.92150391 185.31733398 -22.18359375 185.32226562 C-16.71767003 185.28702227 -12.09719342 185.15312481 -7 183 C-5.70855518 182.57082771 -4.41398094 182.1510104 -3.1171875 181.73828125 C7.00743193 178.37211848 16.33986164 174.62953514 24.703125 167.7890625 C27 166 27 166 29 166 C29.33 165.01 29.66 164.02 30 163 C31.64302953 161.31002677 33.31471312 159.64783606 35 158 C42.59919426 150.19146154 52 137.29698327 52 126 C50.87464844 125.75765625 49.74929688 125.5153125 48.58984375 125.265625 C36.77761663 122.69741151 25.10822034 119.76293584 13.4921875 116.4140625 C12.52313477 116.13933105 11.55408203 115.86459961 10.55566406 115.58154297 C8.65108986 115.04114146 6.74918705 114.49120205 4.85058594 113.93017578 C-0.29778797 112.47699063 -4.72468473 111.84416014 -10.06542969 112.03027344 C-12.69846289 111.98906999 -14.62385005 111.09069178 -17 110 C-20.59450677 109.1849191 -24.20251157 108.48492375 -27.8203125 107.78125 C-31 107 -31 107 -34 105 C-33.67 103.35 -33.34 101.7 -33 100 C-32.38125 99.9175 -31.7625 99.835 -31.125 99.75 C-28.81562433 99.18741541 -28.81562433 99.18741541 -27.75 96.9375 C-27.37875 95.9784375 -27.37875 95.9784375 -27 95 C-26.34 95 -25.68 95 -25 95 C-24.9175 94.4225 -24.835 93.845 -24.75 93.25 C-23.78202213 90.3460664 -22.31305716 88.96259396 -20 87 C-19.34 87 -18.68 87 -18 87 C-18 86.34 -18 85.68 -18 85 C-17.34 85 -16.68 85 -16 85 C-15.7628125 84.45859375 -15.525625 83.9171875 -15.28125 83.359375 C-13.65652243 80.36749863 -11.6498123 77.88840601 -9.5 75.25 C-8.7059375 74.26515625 -7.911875 73.2803125 -7.09375 72.265625 C-6.4028125 71.51796875 -5.711875 70.7703125 -5 70 C-4.34 70 -3.68 70 -3 70 C-3 69.34 -3 68.68 -3 68 C-1.34151823 66.98648336 0.32665961 65.98879205 2 65 C3.3565164 63.69026002 4.68557638 62.35197858 6 61 C7.16379827 60.01742579 8.33089937 59.03875929 9.5 58.0625 C15.50179764 52.87912931 20.69606293 46.87853025 26 41 C33.1402732 46.83170687 38.94853623 53.27423188 44 61 C44 61.99 44 62.98 44 64 C41.03 65.485 41.03 65.485 38 67 C39.1446875 66.505 39.1446875 66.505 40.3125 66 C43 65 43 65 46 65 C46.33 64.01 46.66 63.02 47 62 C48.68071666 61.20907451 50.36968496 60.42935685 52.1015625 59.7578125 C54.23570222 58.94546754 54.23570222 58.94546754 57.0625 57.375 C60.08916175 55.95826471 62.69610536 55.39332079 66 55 C66 54.34 66 53.68 66 53 C68.97 52.505 68.97 52.505 72 52 C71.68482422 53.06927734 71.68482422 53.06927734 71.36328125 54.16015625 C70.91422063 57.67055485 71.68377445 59.25806856 73.1875 62.4375 C81.5384089 81.34302988 83.79162048 100.69313379 80.6875 121 C80.56995361 121.77674072 80.45240723 122.55348145 80.33129883 123.35375977 C79.46158902 128.52367052 77.95989017 133.14995212 76 138 C75.60039062 139.1034375 75.20078125 140.206875 74.7890625 141.34375 C72.65084213 147.14134081 70.52237311 152.33968405 66.8203125 157.31640625 C65.85930559 158.969996 65.85930559 158.969996 66.01953125 160.8828125 C67.49066879 164.05953181 69.96924478 166.05481945 72.5625 168.3125 C73.3822229 169.04424438 73.3822229 169.04424438 74.21850586 169.79077148 C75.80459511 171.20294026 77.40024224 172.60335284 79 174 C79.721875 174.63421875 80.44375 175.2684375 81.1875 175.921875 C82.42791464 177.00723781 83.67007793 178.09060571 84.9140625 179.171875 C87.60685998 181.53185481 90.2771573 183.91609209 92.9375 186.3125 C93.87464844 187.15425781 94.81179688 187.99601563 95.77734375 188.86328125 C98.72455823 191.69654367 99.1840723 193.27550068 99.3125 197.25 C99.26032408 201.87874943 98.10512601 204.46360649 95 208 C90.7319232 210.55552208 86.85547438 210.96476853 82 210 C78.51946184 208.21269662 75.85339735 205.65308722 73 203 C72.07912598 202.14704346 72.07912598 202.14704346 71.13964844 201.27685547 C67.66072064 198.04854943 64.20542715 194.79746565 60.76953125 191.5234375 C58.43634232 189.30930696 56.06899804 187.19409155 53.57421875 185.1640625 C51 183 51 183 50 181 C46.37628489 182.57848012 43.68631612 184.82155261 40.6875 187.375 C30.29861111 196 30.29861111 196 26 196 C26 196.66 26 197.32 26 198 C25.17757812 198.31453125 24.35515625 198.6290625 23.5078125 198.953125 C22.39148438 199.38109375 21.27515625 199.8090625 20.125 200.25 C18.93003906 200.70632813 17.73507812 201.16265625 16.50390625 201.6328125 C13.66015342 202.74241505 10.86506868 203.91788361 8.0625 205.125 C-14.93353586 214.11868016 -46.41780219 212.63663171 -69.06640625 202.84765625 C-70.38197552 202.24116445 -71.69301511 201.62477622 -73 201 C-73.73202637 200.65050293 -74.46405273 200.30100586 -75.21826172 199.94091797 C-86.44091339 194.4375707 -95.25427832 187.86977447 -104 179 C-104.73347656 178.33613281 -105.46695313 177.67226563 -106.22265625 176.98828125 C-123.89581839 160.79081058 -134.08738893 134.08338429 -135.28515625 110.50390625 C-135.76494375 93.97351343 -133.4507036 77.30711514 -127 62 C-126.34 61.34 -125.68 60.68 -125 60 C-124.39765634 58.51555116 -123.84129527 57.0122109 -123.3125 55.5 C-121.02905344 49.6486682 -117.81602282 44.95782493 -114 40 C-113.28328125 39.06671875 -112.5665625 38.1334375 -111.828125 37.171875 C-107.31300452 31.47348156 -102.69995558 26.50529348 -97 22 C-96.14019531 21.29230469 -95.28039062 20.58460938 -94.39453125 19.85546875 C-68.51105842 -0.64871283 -32.05466557 -9.84738778 0 0 Z " fill="#F7F8F8" transform="translate(345,192)"/>
<path d="M0 0 C0.93972656 0.31066406 1.87945312 0.62132812 2.84765625 0.94140625 C9.75842866 3.3837236 16.49437938 7.15656743 22 12 C22 16 22 16 20.49609375 17.859375 C19.81675781 18.48328125 19.13742187 19.1071875 18.4375 19.75 C13.43361553 24.50590435 8.90265212 29.53169454 4.6875 35 C4.130625 35.66 3.57375 36.32 3 37 C2.34 37 1.68 37 1 37 C0.62875 37.9590625 0.62875 37.9590625 0.25 38.9375 C-1 41 -1 41 -3.125 41.75 C-3.74375 41.8325 -4.3625 41.915 -5 42 C-5 42.66 -5 43.32 -5 44 C-5.66 44 -6.32 44 -7 44 C-7.2371875 44.54140625 -7.474375 45.0828125 -7.71875 45.640625 C-9.34347757 48.63250137 -11.3501877 51.11159399 -13.5 53.75 C-14.2940625 54.73484375 -15.088125 55.7196875 -15.90625 56.734375 C-16.5971875 57.48203125 -17.288125 58.2296875 -18 59 C-18.66 59 -19.32 59 -20 59 C-20 59.66 -20 60.32 -20 61 C-20.969375 61.804375 -21.93875 62.60875 -22.9375 63.4375 C-26.19375327 65.70684377 -26.19375327 65.70684377 -27 69 C-32.08108108 73.54054054 -32.08108108 73.54054054 -35 75 C-35.65213292 77.02463255 -35.65213292 77.02463255 -36 79 C-34.28103516 79.39832031 -34.28103516 79.39832031 -32.52734375 79.8046875 C-30.99737464 80.16136742 -29.46742791 80.51814337 -27.9375 80.875 C-27.18533203 81.04902344 -26.43316406 81.22304688 -25.65820312 81.40234375 C-22.18287549 82.214758 -18.78858958 83.06613702 -15.37890625 84.1328125 C-12.0440646 85.14403917 -12.0440646 85.14403917 -8.671875 84.96484375 C-3.89208871 85.01060766 0.1854441 86.22782967 4.75 87.5625 C6.69349913 88.11248703 8.63753681 88.66057357 10.58203125 89.20703125 C11.61279785 89.49787598 12.64356445 89.7887207 13.70556641 90.08837891 C20.74428104 92.03610089 27.82590178 93.82264957 34.89941406 95.63891602 C40.2877139 97.02604673 45.66106908 98.43288934 51 100 C49.14385244 111.39290569 43.12653266 121.16772525 36 130 C35.51917969 130.63292969 35.03835938 131.26585937 34.54296875 131.91796875 C23.57326975 145.73283463 7.51248576 153.08035085 -9 158 C-10.26650391 158.53367187 -10.26650391 158.53367187 -11.55859375 159.078125 C-25.46293343 162.80278353 -42.64289416 160.90833407 -56 156 C-57.11117187 155.63777344 -58.22234375 155.27554688 -59.3671875 154.90234375 C-78.56935065 148.2380636 -94.11105085 133.84286107 -103.375 115.875 C-112.42147774 96.47873841 -115.83171875 75.04097902 -109.1953125 54.25 C-108.60363281 52.64125 -108.60363281 52.64125 -108 51 C-107.62617188 49.948125 -107.25234375 48.89625 -106.8671875 47.8125 C-99.09752693 27.64225534 -84.33000985 13.42352072 -65.921875 2.80078125 C-64 2 -64 2 -60 2 C-60 1.34 -60 0.68 -60 0 C-58.00283825 -0.65455759 -56.00209613 -1.2981943 -54 -1.9375 C-52.88625 -2.29714844 -51.7725 -2.65679687 -50.625 -3.02734375 C-33.82827338 -7.53422406 -16.11698891 -5.98531881 0 0 Z " fill="#637079" transform="translate(347,218)"/>
<path d="M0 0 C0.96788452 0.52799194 0.96788452 0.52799194 1.95532227 1.06665039 C22.47647171 12.60241592 37.77929533 31.04265765 44.875 53.5625 C45.17921875 54.45582031 45.4834375 55.34914063 45.796875 56.26953125 C53.18982243 78.97145943 49.71069013 105.62604904 39.3125 126.734375 C35.76871838 133.60045189 31.91227206 139.71112336 26.875 145.5625 C25.74771484 146.90634766 25.74771484 146.90634766 24.59765625 148.27734375 C9.81726073 165.29931585 -11.02546982 175.70385187 -33.125 179.5625 C-35.1248248 179.58897181 -37.1252434 179.59370188 -39.125 179.5625 C-39.23714844 178.32886719 -39.23714844 178.32886719 -39.3515625 177.0703125 C-40.9486842 163.51043607 -46.50679795 155.94629623 -57.125 147.5625 C-57.785 147.2325 -58.445 146.9025 -59.125 146.5625 C-59.125 145.9025 -59.125 145.2425 -59.125 144.5625 C-58.53074219 144.54268066 -57.93648438 144.52286133 -57.32421875 144.50244141 C-54.59075581 144.40626007 -51.85796197 144.29696443 -49.125 144.1875 C-47.72314453 144.14109375 -47.72314453 144.14109375 -46.29296875 144.09375 C-32.35487364 143.50893482 -19.52633822 138.65801363 -8.125 130.5625 C-7.795 129.5725 -7.465 128.5825 -7.125 127.5625 C-7.75776855 127.43721924 -8.39053711 127.31193848 -9.04248047 127.18286133 C-20.27688689 124.94268533 -31.43274848 122.640953 -42.43798828 119.4453125 C-49.25306576 117.47826495 -56.13494484 115.84796232 -63.04760742 114.26171875 C-67.49699061 113.23147083 -71.81703016 112.10407744 -76.125 110.5625 C-75.92003906 109.716875 -75.71507812 108.87125 -75.50390625 108 C-69.83692024 84.13900628 -70.89363967 59.39610789 -82.33203125 37.22265625 C-83.125 35.5625 -83.125 35.5625 -82.75 33.3125 C-82.54375 32.735 -82.3375 32.1575 -82.125 31.5625 C-83.775 31.5625 -85.425 31.5625 -87.125 31.5625 C-87.125 32.2225 -87.125 32.8825 -87.125 33.5625 C-87.78886719 33.81644531 -88.45273437 34.07039063 -89.13671875 34.33203125 C-93.72712743 36.12128543 -97.92500929 37.96838809 -102.125 40.5625 C-103.45833333 40.89583333 -104.79166667 41.22916667 -106.125 41.5625 C-106.62 42.5525 -106.62 42.5525 -107.125 43.5625 C-109.19140625 44.4140625 -109.19140625 44.4140625 -111.6875 45.1875 C-112.51378906 45.44789063 -113.34007812 45.70828125 -114.19140625 45.9765625 C-114.82949219 46.16992188 -115.46757812 46.36328125 -116.125 46.5625 C-114.125 43.5625 -114.125 43.5625 -111.5 42.875 C-110.324375 42.7203125 -110.324375 42.7203125 -109.125 42.5625 C-112.92588999 33.53538628 -119.66902951 26.69589198 -127.125 20.5625 C-127.55844727 21.03147705 -127.99189453 21.5004541 -128.43847656 21.98364258 C-130.41395698 24.11723534 -132.39441484 26.24614552 -134.375 28.375 C-135.05691406 29.11298828 -135.73882812 29.85097656 -136.44140625 30.61132812 C-137.10527344 31.32353516 -137.76914062 32.03574219 -138.453125 32.76953125 C-139.36433105 33.75143433 -139.36433105 33.75143433 -140.29394531 34.75317383 C-142.12556218 36.56305551 -144.03099015 38.06879993 -146.125 39.5625 C-144.72411965 36.40636813 -143.06021183 34.23722779 -140.6484375 31.77734375 C-139.978125 31.08189453 -139.3078125 30.38644531 -138.6171875 29.66992188 C-137.19996506 28.21739961 -135.78067483 26.76689214 -134.359375 25.31835938 C-133.35777344 24.27711914 -133.35777344 24.27711914 -132.3359375 23.21484375 C-131.72024902 22.58570068 -131.10456055 21.95655762 -130.47021484 21.30834961 C-128.81982352 19.53376771 -128.81982352 19.53376771 -129.125 16.5625 C-127.46584625 15.55008378 -125.79729195 14.55306418 -124.125 13.5625 C-122.09951876 11.6561235 -120.27442767 9.5868498 -118.4375 7.5 C-117.47549585 6.4255704 -116.51326544 5.35134335 -115.55078125 4.27734375 C-114.35001953 2.93349609 -114.35001953 2.93349609 -113.125 1.5625 C-112.465 0.9025 -111.805 0.2425 -111.125 -0.4375 C-103.82010159 2.82639078 -99.90635901 8.30865167 -95.125 14.5625 C-93.85434541 16.18763977 -92.58352819 17.8126524 -91.3125 19.4375 C-90.75820313 20.15550781 -90.20390625 20.87351563 -89.6328125 21.61328125 C-87.82397319 23.95165124 -85.98081549 26.26128879 -84.125 28.5625 C-75.2561035 25.95673817 -67.54312564 21.70569513 -59.45117188 17.30078125 C-53.1335006 13.92775456 -47.09187681 11.26938969 -40.125 9.5625 C-40.125 8.9025 -40.125 8.2425 -40.125 7.5625 C-24.90891823 -0.21544751 -24.90891823 -0.21544751 -18.5625 -3 C-17.85996094 -3.31066406 -17.15742188 -3.62132812 -16.43359375 -3.94140625 C-10.3882205 -5.24049661 -5.19836316 -2.87046964 0 0 Z " fill="#AABAC5" transform="translate(498.125,213.4375)"/>
<path d="M0 0 C0.64525635 0.35199463 1.2905127 0.70398926 1.95532227 1.06665039 C22.47647171 12.60241592 37.77929533 31.04265765 44.875 53.5625 C45.17921875 54.45582031 45.4834375 55.34914063 45.796875 56.26953125 C53.18982243 78.97145943 49.71069013 105.62604904 39.3125 126.734375 C35.76871838 133.60045189 31.91227206 139.71112336 26.875 145.5625 C25.74771484 146.90634766 25.74771484 146.90634766 24.59765625 148.27734375 C9.81726073 165.29931585 -11.02546982 175.70385187 -33.125 179.5625 C-35.1248248 179.58897181 -37.1252434 179.59370188 -39.125 179.5625 C-39.19976562 178.74007812 -39.27453125 177.91765625 -39.3515625 177.0703125 C-40.9486842 163.51043607 -46.50679795 155.94629623 -57.125 147.5625 C-57.785 147.2325 -58.445 146.9025 -59.125 146.5625 C-59.125 145.9025 -59.125 145.2425 -59.125 144.5625 C-58.53074219 144.54268066 -57.93648438 144.52286133 -57.32421875 144.50244141 C-54.59075581 144.40626007 -51.85796197 144.29696443 -49.125 144.1875 C-47.72314453 144.14109375 -47.72314453 144.14109375 -46.29296875 144.09375 C-31.40485105 143.46907373 -16.66513513 137.96395044 -5.3125 128.125 C-4.590625 127.279375 -3.86875 126.43375 -3.125 125.5625 C-2.59777344 125.0365625 -2.07054687 124.510625 -1.52734375 123.96875 C12.00522496 109.93056884 14.27700576 92.12094192 14.875 73.5625 C14.215 73.5625 13.555 73.5625 12.875 73.5625 C12.813125 72.304375 12.75125 71.04625 12.6875 69.75 C11.37243157 58.23864756 3.68724581 44.97279761 -5.125 37.5625 C-14.97575825 29.76398305 -23.89166183 25.53553718 -36.125 22.875 C-38.00068148 22.45747686 -39.87572324 22.03706565 -41.75 21.61328125 C-42.56726563 21.43450439 -43.38453125 21.25572754 -44.2265625 21.0715332 C-46.125 20.5625 -46.125 20.5625 -47.125 19.5625 C-47.38793056 15.53089809 -47.41904844 14.00357266 -45.125 10.5625 C-42.5 9.875 -42.5 9.875 -40.125 9.5625 C-40.125 8.9025 -40.125 8.2425 -40.125 7.5625 C-24.90891823 -0.21544751 -24.90891823 -0.21544751 -18.5625 -3 C-17.50869141 -3.46599609 -17.50869141 -3.46599609 -16.43359375 -3.94140625 C-10.3882205 -5.24049661 -5.19836316 -2.87046964 0 0 Z " fill="#B6D6EF" transform="translate(498.125,213.4375)"/>
<path d="M0 0 C7.1402732 5.83170687 12.94853623 12.27423188 18 20 C18 20.99 18 21.98 18 23 C16.02 23.99 14.04 24.98 12 26 C12.763125 25.67 13.52625 25.34 14.3125 25 C17 24 17 24 20 24 C20.495 22.515 20.495 22.515 21 21 C22.68071666 20.20907451 24.36968496 19.42935685 26.1015625 18.7578125 C28.23570222 17.94546754 28.23570222 17.94546754 31.0625 16.375 C34.08916175 14.95826471 36.69610536 14.39332079 40 14 C40 13.34 40 12.68 40 12 C42.97 11.505 42.97 11.505 46 11 C45.68482422 12.06927734 45.68482422 12.06927734 45.36328125 13.16015625 C44.91422063 16.67055485 45.68377445 18.25806856 47.1875 21.4375 C55.58722742 40.45354958 57.74159927 59.83267228 54.6875 80.25 C54.56995361 81.06025635 54.45240723 81.8705127 54.33129883 82.70532227 C53.64354785 86.86390851 53.02121318 89.85184509 50 93 C50 92.01 50 91.02 50 90 C49.14535156 89.8659375 48.29070312 89.731875 47.41015625 89.59375 C44.04971448 89.0086559 40.7567731 88.28377169 37.4375 87.5 C33.63364367 86.60392077 29.83305032 85.75975513 26 85 C13.03789585 82.23353889 0.22966567 79.08624573 -12.5078125 75.4140625 C-13.9613916 75.00196533 -13.9613916 75.00196533 -15.44433594 74.58154297 C-17.34891014 74.04114146 -19.25081295 73.49120205 -21.14941406 72.93017578 C-26.29778797 71.47699063 -30.72468473 70.84416014 -36.06542969 71.03027344 C-38.69846289 70.98906999 -40.62385005 70.09069178 -43 69 C-46.59450677 68.1849191 -50.20251157 67.48492375 -53.8203125 66.78125 C-57 66 -57 66 -60 64 C-59.67 62.35 -59.34 60.7 -59 59 C-58.38125 58.9175 -57.7625 58.835 -57.125 58.75 C-54.81562433 58.18741541 -54.81562433 58.18741541 -53.75 55.9375 C-53.5025 55.298125 -53.255 54.65875 -53 54 C-52.34 54 -51.68 54 -51 54 C-50.9175 53.4225 -50.835 52.845 -50.75 52.25 C-49.78202213 49.3460664 -48.31305716 47.96259396 -46 46 C-45.34 46 -44.68 46 -44 46 C-44 45.34 -44 44.68 -44 44 C-43.34 44 -42.68 44 -42 44 C-41.7628125 43.45859375 -41.525625 42.9171875 -41.28125 42.359375 C-39.65652243 39.36749863 -37.6498123 36.88840601 -35.5 34.25 C-34.7059375 33.26515625 -33.911875 32.2803125 -33.09375 31.265625 C-32.4028125 30.51796875 -31.711875 29.7703125 -31 29 C-30.34 29 -29.68 29 -29 29 C-29 28.34 -29 27.68 -29 27 C-27.34151823 25.98648336 -25.67334039 24.98879205 -24 24 C-22.6434836 22.69026002 -21.31442362 21.35197858 -20 20 C-18.83620173 19.01742579 -17.66910063 18.03875929 -16.5 17.0625 C-10.49820236 11.87912931 -5.30393707 5.87853025 0 0 Z " fill="#D5E1EA" transform="translate(371,233)"/>
<path d="M0 0 C0 0.66 0 1.32 0 2 C0.5878125 2.24492187 1.175625 2.48984375 1.78125 2.7421875 C7.66011445 6.07492404 11.41572251 13.17106481 14.15625 19.171875 C15.06706369 21.22913427 15.06706369 21.22913427 16.75 23.9375 C18.42053019 28.03029898 18.26165307 31.63911546 18 36 C17.04222656 36.47308594 16.08445312 36.94617188 15.09765625 37.43359375 C13.75238026 38.10111144 12.40734789 38.76912024 11.0625 39.4375 C10.3504541 39.79078369 9.6384082 40.14406738 8.90478516 40.50805664 C5.02357304 42.44612098 1.17504078 44.42833895 -2.63671875 46.5 C-3.38767822 46.90677979 -4.1386377 47.31355957 -4.91235352 47.73266602 C-6.35830583 48.5200184 -7.80040751 49.31449522 -9.23803711 50.11694336 C-13.17274295 52.255753 -16.46433279 53.55491116 -21 54 C-21.65226562 53.07058594 -22.30453125 52.14117187 -22.9765625 51.18359375 C-28.51702682 43.24762034 -28.51702682 43.24762034 -34.625 35.75 C-37 33 -37 33 -37 31 C-37.99 30.67 -38.98 30.34 -40 30 C-40 29.34 -40 28.68 -40 28 C-42.93720508 26.47700477 -45.9168649 25.19899698 -49 24 C-48.278125 23.46375 -47.55625 22.9275 -46.8125 22.375 C-43.7427798 19.78279183 -41.52282007 17.12033008 -39 14 C-38.27876953 13.28070313 -38.27876953 13.28070313 -37.54296875 12.546875 C-35.32007872 10.3183574 -33.38755301 7.86561858 -31.40234375 5.42578125 C-30.93957031 4.95527344 -30.47679687 4.48476562 -30 4 C-29.34 4 -28.68 4 -28 4 C-27.731875 3.195625 -27.46375 2.39125 -27.1875 1.5625 C-26.795625 0.716875 -26.40375 -0.12875 -26 -1 C-25.01 -1.33 -24.02 -1.66 -23 -2 C-23 -2.66 -23 -3.32 -23 -4 C-22.34 -4 -21.68 -4 -21 -4 C-21 -5.32 -21 -6.64 -21 -8 C-24.47665095 -9.06888524 -27.67137478 -9.11475767 -31.296875 -9.09765625 C-33.10478516 -9.09282227 -33.10478516 -9.09282227 -34.94921875 -9.08789062 C-36.83060547 -9.07532227 -36.83060547 -9.07532227 -38.75 -9.0625 C-40.01972656 -9.05798828 -41.28945313 -9.05347656 -42.59765625 -9.04882812 C-45.73181836 -9.03704556 -48.86588541 -9.02059416 -52 -9 C-39.52630956 -21.47369044 -11.22344668 -8.30194212 0 0 Z " fill="#5D8DB7" transform="translate(434,189)"/>
<path d="M0 0 C3.96 0 7.92 0 12 0 C12 0.66 12 1.32 12 2 C12.54914063 1.67773438 13.09828125 1.35546875 13.6640625 1.0234375 C17.93885787 -0.84946616 22.42940753 -0.53732655 27 0 C30.4375 1.6875 30.4375 1.6875 33 4 C33.78375 4.66 34.5675 5.32 35.375 6 C38.29703365 11.39452366 37.9109988 17.52681707 36.375 23.3828125 C34.40293082 28.01365353 31.53754874 30.73907928 27.15234375 33.15625 C23.4723496 34.59886114 20.93864969 34.51654422 17 34 C15.35 33.01 13.7 32.02 12 31 C12 35.62 12 40.24 12 45 C8.04 45 4.08 45 0 45 C0 30.15 0 15.3 0 0 Z " fill="#F0F2F3" transform="translate(461,430)"/>
<path d="M0 0 C3.63 0 7.26 0 11 0 C11 14.85 11 29.7 11 45 C6.05 45 1.1 45 -4 45 C-5.485 45.495 -5.485 45.495 -7 46 C-11.66507623 46.3823833 -14.04127641 46.47936179 -18.25 44.375 C-22.54888752 40.66232441 -25.62341407 36.5312648 -26.23828125 30.765625 C-26.42173974 24.54734764 -25.7048685 21.04273768 -22 16 C-18.52343883 12.83948984 -15.33802945 11.84638403 -10.6875 11.75 C-9.57955078 11.71132813 -9.57955078 11.71132813 -8.44921875 11.671875 C-6 12 -6 12 0 15 C0 10.05 0 5.1 0 0 Z " fill="#F5F6F6" transform="translate(274,418)"/>
<path d="M0 0 C4.777025 -0.53666994 9.24408829 -0.79525081 14 0 C16.58388025 2.14140641 18.04864815 4.16372165 19.765625 7.03125 C20.17296875 7.6809375 20.5803125 8.330625 21 9 C21.66 9 22.32 9 23 9 C23.7435092 7.50705723 24.46962887 6.0054385 25.1875 4.5 C26.73828125 2.00390625 26.73828125 2.00390625 29 0 C34.1056883 -0.81797938 38.87494976 -0.52815403 44 0 C40.38444861 5.60211809 36.60932389 10.83007452 32.22265625 15.859375 C30.76793732 17.95610112 30.76793732 17.95610112 31.140625 20.52734375 C32.02795244 23.08042678 33.00285563 24.71222158 34.6875 26.8125 C35.21988281 27.493125 35.75226563 28.17375 36.30078125 28.875 C36.86152344 29.57625 37.42226563 30.2775 38 31 C39.13249808 32.43160028 40.25781572 33.86891746 41.375 35.3125 C41.87773437 35.94800781 42.38046875 36.58351563 42.8984375 37.23828125 C44 39 44 39 44 42 C39.19979006 42.59919403 34.77564529 42.87492738 30 42 C26.70129121 39.14146428 24.73815152 35.98598656 23 32 C23 31.34 23 30.68 23 30 C19.58461105 33.10391179 19.58461105 33.10391179 17.046875 36.890625 C15.87637076 39.17589519 15.08031249 40.45935016 13 42 C8.28155101 42.612646 3.73122364 42.40333842 -1 42 C0.50001416 37.45734347 3.06372093 34.01640631 6 30.3125 C6.45117188 29.73177734 6.90234375 29.15105469 7.3671875 28.55273438 C9.15936899 26.25948439 10.94021831 24.05978169 13 22 C12.64614671 18.74151311 11.26345204 16.72126284 9.27734375 14.1796875 C8.73916016 13.47972656 8.20097656 12.77976562 7.64648438 12.05859375 C7.08251953 11.33800781 6.51855469 10.61742187 5.9375 9.875 C4.81732682 8.4382285 3.70121929 6.99827494 2.58984375 5.5546875 C2.09347412 4.92030762 1.59710449 4.28592773 1.08569336 3.63232422 C0 2 0 2 0 0 Z " fill="#F2F4F5" transform="translate(292,421)"/>
<path d="M0 0 C1.02963867 -0.01836914 1.02963867 -0.01836914 2.08007812 -0.03710938 C6.81322725 -0.0505431 10.69220432 0.70082051 15.1875 2.1875 C14.65024105 5.56455625 14.07685377 8.884186 13.1875 12.1875 C8.65919811 12.43907233 8.65919811 12.43907233 6.3125 11.1875 C3.83341516 10.02087184 2.15899312 9.98245608 -0.5625 10.0625 C-1.76132812 10.08957031 -1.76132812 10.08957031 -2.984375 10.1171875 C-3.88929688 10.15199219 -3.88929688 10.15199219 -4.8125 10.1875 C-5.4725 11.8375 -6.1325 13.4875 -6.8125 15.1875 C-6.21824219 15.28546875 -5.62398438 15.3834375 -5.01171875 15.484375 C13.3654938 18.79970417 13.3654938 18.79970417 17.1875 24.1875 C18.0238596 29.05496216 17.92931444 33.67161832 15.75 38.125 C8.19142702 44.20872947 0.73030208 45.1629342 -8.8125 44.1875 C-11.99387202 43.56988728 -15.07443541 42.96857114 -17.8125 41.1875 C-19.38134528 37.41608869 -18.24531271 34.89595641 -16.8125 31.1875 C-10.0625 32.0625 -10.0625 32.0625 -7.8125 33.1875 C-5.6052077 33.25842842 -3.39582548 33.27165025 -1.1875 33.25 C0.59527344 33.23646484 0.59527344 33.23646484 2.4140625 33.22265625 C3.32929688 33.21105469 4.24453125 33.19945312 5.1875 33.1875 C5.1875 31.8675 5.1875 30.5475 5.1875 29.1875 C4.02992188 28.95675781 2.87234375 28.72601563 1.6796875 28.48828125 C0.14042701 28.15978054 -1.39862488 27.83030132 -2.9375 27.5 C-4.07832031 27.27666992 -4.07832031 27.27666992 -5.2421875 27.04882812 C-10.69234289 25.85073362 -13.87452347 24.1806818 -17.8125 20.1875 C-19.42066725 15.36299824 -19.61724053 10.9981662 -17.5625 6.375 C-12.60521019 0.17838774 -7.56593318 0.00698609 0 0 Z " fill="#F1F2F3" transform="translate(359.8125,419.8125)"/>
<path d="M0 0 C3.29755546 1.48438347 5.60561769 3.30940545 8 6 C8.83144531 6.90685547 8.83144531 6.90685547 9.6796875 7.83203125 C11.40341614 10.66241408 11.39993714 12.64164109 11.375 15.9375 C11.38660156 17.46697266 11.38660156 17.46697266 11.3984375 19.02734375 C10.74268584 23.91976548 8.64916158 26.40608621 5.0625 29.6875 C-0.36151872 33.78318761 -4.25681772 34.87391642 -11 34 C-16.7735387 32.26887413 -21.13264827 29.71333492 -25 25 C-26.93795159 19.18614524 -27.02055692 13.07891224 -24.3125 7.5625 C-17.07760149 -0.4545497 -10.37565628 -1.14453116 0 0 Z " fill="#F2F3F4" transform="translate(191,430)"/>
<path d="M0 0 C4.54068278 3.35145634 8.10085049 6.01099856 9.140625 11.81640625 C9.36822386 18.31110227 8.82006832 22.90341801 4.625 27.9375 C-0.73933642 32.3528629 -6.65969604 32.49828688 -13.38671875 32.25 C-18.72891122 31.69133935 -21.91058578 29.635904 -25.75 26.0625 C-29.209181 21.76140193 -29.22184676 17.39695768 -28.95703125 12.0390625 C-28.06995393 7.31195247 -26.19585651 4.771231 -22.375 1.9375 C-15.64015068 -2.23810658 -7.48766107 -2.35722663 0 0 Z " fill="#F1F3F3" transform="translate(446.375,431.0625)"/>
<path d="M0 0 C2.50998607 1.44297345 4.71879215 2.74831282 6.80078125 4.76171875 C6.80078125 5.75171875 6.80078125 6.74171875 6.80078125 7.76171875 C4.05078125 10.51171875 4.05078125 10.51171875 0.80078125 12.76171875 C-2.3453028 12.67183063 -3.50890858 11.55525886 -6.19921875 9.76171875 C-10.66923512 8.95285865 -14.91845233 9.04708923 -18.76171875 11.63671875 C-21.73139594 15.4439972 -21.97843682 17.59367003 -21.6328125 22.3125 C-20.93967075 26.22781422 -20.2122263 28.09906091 -17.19921875 30.76171875 C-13.44292497 31.44001763 -9.94994364 31.47325332 -6.19921875 30.76171875 C-4.84150219 29.79508359 -3.50416586 28.79848817 -2.19921875 27.76171875 C0.80078125 27.76171875 0.80078125 27.76171875 3.48828125 30.01171875 C5.80078125 32.76171875 5.80078125 32.76171875 5.80078125 36.76171875 C-0.49623202 42.77886477 -5.12090126 43.1221116 -13.546875 43.03515625 C-20.46640839 42.51711632 -25.94347 40.5425906 -30.69921875 35.38671875 C-35.02270921 29.58542506 -35.76359244 23.9354358 -35.6484375 16.8046875 C-34.73531877 10.61930062 -31.05107443 6.56727804 -26.69921875 2.32421875 C-19.01182401 -2.48040296 -8.42099442 -3.2594081 0 0 Z " fill="#EEF0F1" transform="translate(135.19921875,421.23828125)"/>
<path d="M0 0 C5.9106172 1.91225851 10.70394644 5.72631431 14 11 C15.15769166 13.63696435 16.08915323 16.2674597 17 19 C17.66 19 18.32 19 19 19 C20.23662862 20.74411301 21.39102135 22.54706485 22.5 24.375 C24.94216507 28.42943147 24.94216507 28.42943147 28 32 C27.01 32 26.02 32 25 32 C25 32.66 25 33.32 25 34 C24.33613281 34.25394531 23.67226563 34.50789063 22.98828125 34.76953125 C18.39787257 36.55878543 14.19999071 38.40588809 10 41 C8.66666667 41.33333333 7.33333333 41.66666667 6 42 C5.505 42.99 5.505 42.99 5 44 C2.93359375 44.8515625 2.93359375 44.8515625 0.4375 45.625 C-0.38878906 45.88539063 -1.21507812 46.14578125 -2.06640625 46.4140625 C-2.70449219 46.60742188 -3.34257812 46.80078125 -4 47 C-2 44 -2 44 0.625 43.3125 C1.800625 43.1578125 1.800625 43.1578125 3 43 C-0.80088999 33.97288628 -7.54402951 27.13339198 -15 21 C-15.43344727 21.46897705 -15.86689453 21.9379541 -16.31347656 22.42114258 C-18.28895698 24.55473534 -20.26941484 26.68364552 -22.25 28.8125 C-23.27287109 29.91948242 -23.27287109 29.91948242 -24.31640625 31.04882812 C-24.98027344 31.76103516 -25.64414062 32.47324219 -26.328125 33.20703125 C-27.23933105 34.18893433 -27.23933105 34.18893433 -28.16894531 35.19067383 C-30.00056218 37.00055551 -31.90599015 38.50629993 -34 40 C-32.59911965 36.84386813 -30.93521183 34.67472779 -28.5234375 32.21484375 C-27.853125 31.51939453 -27.1828125 30.82394531 -26.4921875 30.10742188 C-25.07496506 28.65489961 -23.65567483 27.20439214 -22.234375 25.75585938 C-21.23277344 24.71461914 -21.23277344 24.71461914 -20.2109375 23.65234375 C-19.59524902 23.02320068 -18.97956055 22.39405762 -18.34521484 21.74584961 C-16.69482352 19.97126771 -16.69482352 19.97126771 -17 17 C-15.34166785 15.98623856 -13.67288524 14.9895619 -12 14 C-9.95276221 12.0948926 -8.10665901 10.02686694 -6.25 7.9375 C-5.75628906 7.39544922 -5.26257813 6.85339844 -4.75390625 6.29492188 C-2.07720296 3.36075736 -2.07720296 3.36075736 0 0 Z " fill="#9AC6E9" transform="translate(386,213)"/>
<path d="M0 0 C4.29 0 8.58 0 13 0 C13.06058594 1.42054688 13.12117187 2.84109375 13.18359375 4.3046875 C13.26799291 6.16146909 13.35264123 8.01823936 13.4375 9.875 C13.47681641 10.81214844 13.51613281 11.74929688 13.55664062 12.71484375 C13.61948242 14.05869141 13.61948242 14.05869141 13.68359375 15.4296875 C13.72025146 16.25710449 13.75690918 17.08452148 13.79467773 17.93701172 C13.88238327 20.06179429 13.88238327 20.06179429 15 22 C16.99954746 22.04254356 19.00041636 22.04080783 21 22 C22.61780157 20.38219843 22.22272147 18.54364482 22.31640625 16.30859375 C22.35830078 15.36435547 22.40019531 14.42011719 22.44335938 13.44726562 C22.48267578 12.45404297 22.52199219 11.46082031 22.5625 10.4375 C22.60568359 9.44041016 22.64886719 8.44332031 22.69335938 7.41601562 C22.79980167 4.94418889 22.90043759 2.4721134 23 0 C27.29 0 31.58 0 36 0 C36 10.89 36 21.78 36 33 C32.04 33 28.08 33 24 33 C24 32.34 24 31.68 24 31 C23.17822266 31.48533203 23.17822266 31.48533203 22.33984375 31.98046875 C17.32029878 34.16761606 11.13904876 33.77369849 6.0625 31.9375 C2.43822409 28.53287718 0.26163209 25.21504595 -0.32202148 20.27368164 C-0.39271464 17.19412686 -0.34937365 14.14117202 -0.25 11.0625 C-0.23195312 9.99708984 -0.21390625 8.93167969 -0.1953125 7.83398438 C-0.14846551 5.22226492 -0.07673179 2.61101232 0 0 Z " fill="#EBEEEE" transform="translate(207,430)"/>
<path d="M0 0 C5.56983961 1.98922843 8.7595318 5.13929771 12 10 C12 13.3 12 16.6 12 20 C4.41 20 -3.18 20 -11 20 C-10.01 21.32 -9.02 22.64 -8 24 C-4.34273907 24.34502462 -1.38563327 24.09073724 2.1875 23.25 C5 23 5 23 7.375 24.75 C9 27 9 27 9 30 C2.21264373 33.9730866 -5.31392718 33.86915679 -13 33 C-18.15745725 30.58402423 -20.9139505 27.24516972 -23 22 C-23.73122926 17.11374841 -23.68380115 12.74749182 -21.875 8.125 C-15.21185809 0.57343917 -9.91867691 -0.72702344 0 0 Z " fill="#F1F2F3" transform="translate(525,430)"/>
<path d="M0 0 C2 2 2 2 2 3.9375 C0.43698228 7.16122405 -1.7112738 7.83927311 -5 9 C-6.9375 8.25 -6.9375 8.25 -9 7 C-12.02207924 6.47895186 -14.93039241 6 -18 6 C-19.17664871 9.52994613 -19.19850603 12.29455413 -19 16 C-18.34 16.99 -17.68 17.98 -17 19 C-12.20188123 19.59083965 -12.20188123 19.59083965 -8.0625 17.5 C-7.711875 17.005 -7.36125 16.51 -7 16 C-3.9168649 17.19899698 -0.93720508 18.47700477 2 20 C1.15220218 23.70911547 -0.37219632 25.6320409 -3.375 27.8125 C-8.71326358 30.86986914 -14.01848054 30.98888023 -20 30 C-24.99982698 28.15753129 -28.99845043 25.04930861 -31.36328125 20.1484375 C-32.77464836 15.38615583 -32.96051396 10.86703384 -32 6 C-29.60439969 1.64124298 -26.59172784 -1.13178481 -22.25 -3.5 C-13.98563819 -4.77144028 -7.08643349 -4.86637287 0 0 Z " fill="#EEF0F2" transform="translate(413,434)"/>
<path d="M0 0 C4.29 0 8.58 0 13 0 C13 14.85 13 29.7 13 45 C8.71 45 4.42 45 0 45 C0 30.15 0 15.3 0 0 Z " fill="#EBEEEF" transform="translate(147,418)"/>
<path d="M0 0 C0 0.66 0 1.32 0 2 C1.093125 2.20625 2.18625 2.4125 3.3125 2.625 C9.05959616 4.05158415 13.91851174 7.04459436 19 10 C20.39564771 10.79199386 21.79144952 11.58371633 23.1875 12.375 C24.115625 12.91125 25.04375 13.4475 26 14 C26 14.66 26 15.32 26 16 C26.928125 16.28875 27.85625 16.5775 28.8125 16.875 C32 18 32 18 35 20 C36.8884352 20.56667044 36.8884352 20.56667044 38.94921875 20.9296875 C39.71556641 21.08566406 40.48191406 21.24164063 41.27148438 21.40234375 C42.86188276 21.7134807 44.45301895 22.02087354 46.04492188 22.32421875 C50.89186781 23.31867138 54.94368031 24.73656058 59.28442383 27.12646484 C61.4633728 28.23593964 63.58304071 28.69788009 66 29 C65.67 29.66 65.34 30.32 65 31 C61.72257475 30.60983033 59.2059481 30.10575713 56.25390625 28.58984375 C52.729116 26.86764732 49.35659682 25.8613875 45.5625 24.875 C44.30566406 24.54242188 43.04882812 24.20984375 41.75390625 23.8671875 C38.03563031 22.92897428 38.03563031 22.92897428 34.30859375 22.60546875 C30.58279226 21.92365148 29.24334416 20.97708128 26.5 18.4375 C10.37853779 4.91001742 -9.7149182 -0.72454976 -30.57324219 0.74755859 C-40.25333256 1.75452172 -49.52949291 4.13730148 -58 9 C-59.09054688 9.44730469 -60.18109375 9.89460937 -61.3046875 10.35546875 C-70.36957635 14.18416949 -78.40957313 20.79651016 -85 28 C-85 25 -85 25 -83.6796875 23.3515625 C-83.08414063 22.78179687 -82.48859375 22.21203125 -81.875 21.625 C-81.00488281 20.77808594 -81.00488281 20.77808594 -80.1171875 19.9140625 C-57.7158108 -0.33810463 -28.97688808 -4.45505375 0 0 Z " fill="#5092CA" transform="translate(308,154)"/>
<path d="M0 0 C5.21429501 0.53207092 9.21926354 1.91386045 14 4 C15.98821313 4.39764263 17.98732362 4.75455166 20 5 C20 5.66 20 6.32 20 7 C21.32 7 22.64 7 24 7 C24 7.66 24 8.32 24 9 C24.763125 9.28875 25.52625 9.5775 26.3125 9.875 C29 11 29 11 32 13 C32 13.66 32 14.32 32 15 C32.66 15.20625 33.32 15.4125 34 15.625 C38.37049271 17.62814249 43.78923947 20.57847894 46 25 C51.47334801 25.49757709 55.53604199 23.167138 60.375 20.875 C76.34621574 15.55126142 96.81300165 17.70034028 112 24 C114.47102985 24.79653177 116.95009565 25.56867812 119.4375 26.3125 C120.50871094 26.63863281 121.57992187 26.96476562 122.68359375 27.30078125 C123.44800781 27.53152344 124.21242188 27.76226562 125 28 C125 28.66 125 29.32 125 30 C125.61875 30.0825 126.2375 30.165 126.875 30.25 C129 31 129 31 130.25 33.0625 C130.4975 33.701875 130.745 34.34125 131 35 C127.60955798 34.34529396 125.14219994 33.01101932 122.1875 31.25 C103.5070096 21.01141765 81.85890473 18.44067356 61.2734375 24.0078125 C59.16130632 24.648005 57.06649876 25.35006296 55 26.125 C51.46518126 27.1559888 48.66546052 27.33939449 45 27 C42.5625 25.625 42.5625 25.625 41 24 C41 23.34 41 22.68 41 22 C40.4740625 21.75765625 39.948125 21.5153125 39.40625 21.265625 C36.92649223 19.96133682 34.61497043 18.47497851 32.28051758 16.9284668 C22.06460661 10.16688689 11.64358646 4.89647578 0 1 C0 0.67 0 0.34 0 0 Z " fill="#4688C5" transform="translate(318,124)"/>
<path d="M0 0 C-1.06476563 0.3403125 -2.12953125 0.680625 -3.2265625 1.03125 C-22.09025497 7.25211544 -37.57087504 17.30529158 -52 31 C-52.49177734 31.45922852 -52.98355469 31.91845703 -53.49023438 32.39160156 C-60.52539052 38.9898189 -66.24898343 45.50170275 -71 54 C-71.33 53.34 -71.66 52.68 -72 52 C-68.88616155 44.8001292 -63.63187768 39.10901178 -58.31640625 33.46875 C-56.56908987 31.60651736 -54.94777311 29.75461928 -53.375 27.75 C-48.87665122 22.54138563 -44.44437289 18.47860496 -38 16 C-36.80853045 15.02968489 -35.64397201 14.02588457 -34.5 13 C-31.76677303 10.56193793 -29.50708637 9.16902879 -26 8 C-23.05687784 6.58975396 -20.22425531 5.13674104 -17.4375 3.4375 C-12.07342834 0.27407312 -6.1399703 -2.04665677 0 0 Z " fill="#4B88C0" transform="translate(254,124)"/>
<path d="M0 0 C2.15357022 3.23035533 2.29592637 4.31133458 2.3125 8.0625 C2.33763672 9.37927734 2.33763672 9.37927734 2.36328125 10.72265625 C2.18345703 11.84994141 2.18345703 11.84994141 2 13 C-1.49124017 15.32749345 -2.89222251 15.50299316 -7 15 C-9.375 13.4375 -9.375 13.4375 -11 11 C-11.56288002 7.05983987 -11.60396028 4.94217804 -9.4375 1.5625 C-6.10812055 -0.57171759 -3.87532069 -0.50235639 0 0 Z " fill="#5A646C" transform="translate(188,439)"/>
<path d="M0 0 C3.5 1 3.5 1 5.5 3.125 C6.7944136 6.8464391 6.4999066 9.21463932 5.5 13 C2.03001271 15.31332486 0.57490752 15.33957563 -3.5 15 C-4.49 14.34 -5.48 13.68 -6.5 13 C-6.8984375 10.72265625 -6.8984375 10.72265625 -6.875 8.0625 C-6.88273437 7.18722656 -6.89046875 6.31195313 -6.8984375 5.41015625 C-6.5 3 -6.5 3 -5.1953125 1.18359375 C-3.5 0 -3.5 0 0 0 Z " fill="#58636B" transform="translate(267.5,439)"/>
<path d="M0 0 C1.9375 1.125 1.9375 1.125 3 3 C3.50030235 6.93094707 3.5996142 9.1005787 1.375 12.4375 C-1.69861159 14.45961289 -3.38925156 14.61459548 -7 14 C-9.2288277 12.21693784 -9.87382488 10.8709588 -10.28125 8.05859375 C-10.41335117 5.06980477 -10.320575 2.62229265 -8.9375 -0.0625 C-5.75738793 -1.60126391 -3.33749179 -0.83437295 0 0 Z " fill="#5D6870" transform="translate(483,440)"/>
<path d="M0 0 C0.99 0.66 1.98 1.32 3 2 C3.39307503 6.06177529 3.52833811 8.75685151 1.9375 12.5 C-1.05072823 14.81346701 -3.34503841 14.4568702 -7 14 C-8.9375 13 -8.9375 13 -10 11 C-10.52960415 7.41957756 -10.65886567 4.24021772 -8.9375 1 C-5.90246787 -0.56646819 -3.34866332 -0.2989878 0 0 Z " fill="#5C666F" transform="translate(440,440)"/>
<path d="M0 0 C2.49361571 1.20381448 4.68143083 2.45428722 7 4 C7 4.66 7 5.32 7 6 C-1.4231212 6.04631753 -9.84618929 6.08186618 -18.26940632 6.10362434 C-22.18054512 6.11406657 -26.09159686 6.12823372 -30.00268555 6.15087891 C-33.77631169 6.17259173 -37.54985404 6.18456532 -41.32353783 6.18975449 C-42.76406359 6.19345306 -44.20458471 6.20067536 -45.64507484 6.21146011 C-47.66088014 6.22595347 -49.67676956 6.22681674 -51.69262695 6.22705078 C-53.41471123 6.23371262 -53.41471123 6.23371262 -55.17158508 6.24050903 C-58 6 -58 6 -61 4 C-40.21 4 -19.42 4 2 4 C1.34 2.68 0.68 1.36 0 0 Z " fill="#BBC3CA" transform="translate(236,388)"/>
<path d="M0 0 C0.66 0.33 1.32 0.66 2 1 C1.54109375 1.65226563 1.0821875 2.30453125 0.609375 2.9765625 C-0.66189609 4.78732258 -1.92861861 6.60128231 -3.19140625 8.41796875 C-4.49454463 10.27838877 -5.83085991 12.11572616 -7.1875 13.9375 C-9.82347233 18.39138428 -11.34170947 23.11457977 -13 28 C-13.27972656 28.70898438 -13.55945313 29.41796875 -13.84765625 30.1484375 C-16.65856832 37.52178475 -17.14803641 45.20125639 -18 53 C-25.26 53 -32.52 53 -40 53 C-40 52.67 -40 52.34 -40 52 C-33.07 52 -26.14 52 -19 52 C-19 49.03 -19 46.06 -19 43 C-16.83373981 26.99921451 -11.03944305 12.04302878 0 0 Z " fill="#6599C6" transform="translate(220,182)"/>
<path d="M0 0 C-1.59714844 0.51046875 -1.59714844 0.51046875 -3.2265625 1.03125 C-16.93320656 5.55142485 -28.34005715 11.60244335 -39.79296875 20.53125 C-42 22 -42 22 -45 22 C-43.41856529 20.56041153 -41.83477221 19.12341355 -40.25 17.6875 C-39.36828125 16.88699219 -38.4865625 16.08648437 -37.578125 15.26171875 C-33.80949113 11.95559904 -30.67742271 9.78187532 -26 8 C-23.05687784 6.58975396 -20.22425531 5.13674104 -17.4375 3.4375 C-12.07342834 0.27407312 -6.1399703 -2.04665677 0 0 Z " fill="#4387C6" transform="translate(254,124)"/>
<path d="M0 0 C7.59 0 15.18 0 23 0 C23 0.33 23 0.66 23 1 C21.02 1 19.04 1 17 1 C17.33 2.32 17.66 3.64 18 5 C17.05125 4.814375 16.1025 4.62875 15.125 4.4375 C12.10131207 3.71313368 12.10131207 3.71313368 10 5 C3.65067466 5.46176912 3.65067466 5.46176912 1.0625 3.625 C0 2 0 2 0 0 Z " fill="#778087" transform="translate(514,450)"/>
<path d="M0 0 C3.63 0 7.26 0 11 0 C11 14.85 11 29.7 11 45 C7.04 45 3.08 45 -1 45 C-1.495 43.515 -1.495 43.515 -2 42 C-1.01 42 -0.02 42 1 42 C1 42.66 1 43.32 1 44 C3.97 44 6.94 44 10 44 C10 29.81 10 15.62 10 1 C6.7 1 3.4 1 0 1 C0 0.67 0 0.34 0 0 Z " fill="#E7E9EC" transform="translate(274,418)"/>
<path d="M0 0 C4.29 0 8.58 0 13 0 C13 0.66 13 1.32 13 2 C14.093125 2.20625 15.18625 2.4125 16.3125 2.625 C22.04725765 4.02522808 26.94153025 7.04302687 32 10 C32 10.99 32 11.98 32 13 C31.030625 12.46890625 30.06125 11.9378125 29.0625 11.390625 C19.5746865 6.34127556 10.52525722 3.12744561 0 1 C0 0.67 0 0.34 0 0 Z " fill="#4D8DC4" transform="translate(295,154)"/>
<path d="M0 0 C0.66 0.33 1.32 0.66 2 1 C-10.44738834 15.02800908 -10.44738834 15.02800908 -14 18 C-14.66 18 -15.32 18 -16 18 C-14.58793323 13.57340865 -12.43885555 11.09052155 -9.125 7.875 C-8.26132813 7.02679688 -7.39765625 6.17859375 -6.5078125 5.3046875 C-4.41172398 3.37837562 -2.31631342 1.64835327 0 0 Z " fill="#6FA2CD" transform="translate(125,221)"/>
<path d="M0 0 C0.33 0.66 0.66 1.32 1 2 C-0.68846081 6.44331793 -2.7988598 10.63288995 -4.94921875 14.8671875 C-6.75172156 18.52579915 -8.36542646 22.26383192 -10 26 C-13.96 26.33 -17.92 26.66 -22 27 C-18.96474514 24.97649676 -17.80573798 24.67875982 -14.3125 24.375 C-13.50425781 24.30023438 -12.69601563 24.22546875 -11.86328125 24.1484375 C-10.94095703 24.07496094 -10.94095703 24.07496094 -10 24 C-9.814375 22.80375 -9.62875 21.6075 -9.4375 20.375 C-8.06448009 14.0550701 -4.65820485 4.65820485 0 0 Z " fill="#5F95C4" transform="translate(181,178)"/>
<path d="M0 0 C9.74098115 8.88148282 14.63107479 20.81299811 19 33 C18.01 33 17.02 33 16 33 C15.62488281 31.92621094 15.24976563 30.85242188 14.86328125 29.74609375 C12.26193768 22.45942427 9.90815788 16.07061632 5 10 C2.97793333 6.77690716 1.20810403 3.6243121 0 0 Z " fill="#558EC0" transform="translate(466,175)"/>
<path d="M0 0 C0 3 0 3 -1.86328125 4.8671875 C-3.07564453 5.86105469 -3.07564453 5.86105469 -4.3125 6.875 C-7.73981389 9.68970223 -9.75273199 12.20474684 -12 16 C-14.04296875 18.01953125 -14.04296875 18.01953125 -16.1875 19.8125 C-16.90292969 20.41707031 -17.61835938 21.02164062 -18.35546875 21.64453125 C-18.89816406 22.09183594 -19.44085938 22.53914063 -20 23 C-20 18.88610839 -18.34609673 17.88611494 -15.5625 14.9375 C-12.41428022 11.72624818 -12.41428022 11.72624818 -10 8 C-9.34 8 -8.68 8 -8 8 C-8 7.34 -8 6.68 -8 6 C-6.34928604 4.97388051 -4.68029994 3.97691857 -3 3 C-1.24850835 1.41754725 -1.24850835 1.41754725 0 0 Z " fill="#A0B0BD" transform="translate(350,254)"/>
<path d="M0 0 C0.66 0.33 1.32 0.66 2 1 C1.27683594 2.61068359 1.27683594 2.61068359 0.5390625 4.25390625 C-0.09919997 5.6899968 -0.73720722 7.12620079 -1.375 8.5625 C-1.69210938 9.26697266 -2.00921875 9.97144531 -2.3359375 10.69726562 C-5.52609807 17.90835775 -7.27947531 24.56961493 -7.625 32.4375 C-7.66367188 33.16904297 -7.70234375 33.90058594 -7.7421875 34.65429688 C-7.83533984 36.43583532 -7.91870286 38.21788122 -8 40 C-8.33 40 -8.66 40 -9 40 C-9.63860051 25.34766607 -8.16749394 12.65292094 0 0 Z " fill="#8CB1D0" transform="translate(132,262)"/>
<path d="M0 0 C-1.49302126 3.76174629 -3.58811069 5.43892406 -6.8125 7.8125 C-11.17885496 11.18046989 -14.08773926 14.34038282 -17 19 C-17.99 18.67 -18.98 18.34 -20 18 C-4.39754098 0 -4.39754098 0 0 0 Z " fill="#4A6882" transform="translate(237,170)"/>
<path d="M0 0 C3.625 0.1875 3.625 0.1875 6.625 2.1875 C6.625 3.1775 6.625 4.1675 6.625 5.1875 C2.665 5.1875 -1.295 5.1875 -5.375 5.1875 C-4.13556338 0.22975352 -4.13556338 0.22975352 0 0 Z " fill="#707980" transform="translate(519.375,438.8125)"/>
<path d="M0 0 C0.66 0.33 1.32 0.66 2 1 C0.54980469 1.92619141 0.54980469 1.92619141 -0.9296875 2.87109375 C-8.18589698 7.56947305 -14.87297383 12.30774223 -21.14453125 18.28515625 C-23 20 -23 20 -25 21 C-23.51480221 17.411441 -21.49946232 15.44042848 -18.5625 12.9375 C-15.45743334 10.30723413 -15.45743334 10.30723413 -12.5625 7.45703125 C-10.4032535 5.44353389 -8.02177804 4.16773975 -5.4375 2.75 C-4.46683594 2.20859375 -3.49617188 1.6671875 -2.49609375 1.109375 C-1.67238281 0.74328125 -0.84867188 0.3771875 0 0 Z " fill="#5296D2" transform="translate(247,161)"/>
<path d="M0 0 C3.83215739 1.37847388 6.92743511 3.15231942 10.25 5.5 C11.12140625 6.1084375 11.9928125 6.716875 12.890625 7.34375 C15 9 15 9 16 11 C17.66611905 11.042721 19.33382885 11.04063832 21 11 C21.33 10.67 21.66 10.34 22 10 C23.99958364 9.95919217 26.00045254 9.95745644 28 10 C23.2623637 12.36881815 20.46569829 13.37694471 15 13 C12.5625 11.625 12.5625 11.625 11 10 C11 9.34 11 8.68 11 8 C10.484375 7.773125 9.96875 7.54625 9.4375 7.3125 C6.09033884 5.51018245 2.96109508 3.38717496 0 1 C0 0.67 0 0.34 0 0 Z " fill="#488CCC" transform="translate(348,138)"/>
<path d="M0 0 C0 3.58286012 -0.54405069 3.95298183 -2.921875 6.46875 C-3.53546875 7.12230469 -4.1490625 7.77585938 -4.78125 8.44921875 C-5.4309375 9.12597656 -6.080625 9.80273438 -6.75 10.5 C-7.70132812 11.51513672 -7.70132812 11.51513672 -8.671875 12.55078125 C-11.62974392 15.6750303 -14.49795355 18.48128679 -18 21 C-16.5975478 17.85702392 -14.92567758 15.63322787 -12.55859375 13.14453125 C-11.55989258 12.08782227 -11.55989258 12.08782227 -10.54101562 11.00976562 C-9.84685547 10.28466797 -9.15269531 9.55957031 -8.4375 8.8125 C-7.73947266 8.07580078 -7.04144531 7.33910156 -6.32226562 6.58007812 C-1.57575335 1.57575335 -1.57575335 1.57575335 0 0 Z " fill="#8EA9C0" transform="translate(370,232)"/>
<path d="M0 0 C3.3 0.99 6.6 1.98 10 3 C10 3.66 10 4.32 10 5 C10.61875 5.0825 11.2375 5.165 11.875 5.25 C14 6 14 6 15.25 8.0625 C15.4975 8.701875 15.745 9.34125 16 10 C12.41756004 9.3022326 9.51828826 7.84559664 6.3125 6.125 C5.33925781 5.61195313 4.36601562 5.09890625 3.36328125 4.5703125 C1 3 1 3 0 0 Z " fill="#4A7BA6" transform="translate(433,149)"/>
<path d="M0 0 C0.33 0.99 0.66 1.98 1 3 C0.57589844 3.37769531 0.15179688 3.75539062 -0.28515625 4.14453125 C-5.60410239 9.13615763 -9.28346361 14.75305585 -13 21 C-13.33 20.34 -13.66 19.68 -14 19 C-10.70179286 11.69978419 -5.47070787 5.74840877 0 0 Z " fill="#5290C8" transform="translate(196,157)"/>
<path d="M0 0 C-0.5347998 0.23710693 -1.06959961 0.47421387 -1.62060547 0.71850586 C-4.03895206 1.79101971 -6.45697952 2.86425115 -8.875 3.9375 C-9.71675781 4.31068359 -10.55851563 4.68386719 -11.42578125 5.06835938 C-12.23144531 5.42607422 -13.03710938 5.78378906 -13.8671875 6.15234375 C-14.61081543 6.48226318 -15.35444336 6.81218262 -16.12060547 7.15209961 C-17.42622365 7.74113727 -18.71887418 8.35943709 -20 9 C-20.66 8.34 -21.32 7.68 -22 7 C-19.93824636 6.040062 -17.87556531 5.08211576 -15.8125 4.125 C-14.66394531 3.59132812 -13.51539063 3.05765625 -12.33203125 2.5078125 C-11.23246094 2.01023438 -10.13289062 1.51265625 -9 1 C-8.11699219 0.58492187 -7.23398438 0.16984375 -6.32421875 -0.2578125 C-3.68766173 -1.09973827 -2.59167875 -0.76348257 0 0 Z " fill="#679AC8" transform="translate(159,206)"/>
<path d="M0 0 C0.33 0 0.66 0 1 0 C1.70352316 6.59971722 1.89152465 11.71514075 -2.125 17.25 C-4.72853675 20.19289795 -5.46294286 20.91211792 -9.4375 21.5625 C-10.283125 21.376875 -11.12875 21.19125 -12 21 C-9 19 -9 19 -7.0625 18.3125 C-3.85234679 16.26967523 -2.31665654 13.47118542 -1 10 C-0.41352505 6.6701794 -0.13587007 3.37637116 0 0 Z " fill="#868E96" transform="translate(455,442)"/>
<path d="M0 0 C2.62697064 -0.22137393 5.00893964 -0.28162025 7.625 -0.1875 C8.33140625 -0.17396484 9.0378125 -0.16042969 9.765625 -0.14648438 C11.51074128 -0.1111104 13.25546608 -0.05730221 15 0 C13 2 13 2 10.79296875 2.01953125 C9.93316406 1.95121094 9.07335937 1.88289063 8.1875 1.8125 C4.02928611 1.69849414 3.36023142 1.69980715 0 4.5 C-0.66 5.325 -1.32 6.15 -2 7 C-2.66 7 -3.32 7 -4 7 C-2.79618552 4.50638429 -1.54571278 2.31856917 0 0 Z " fill="#DADFE2" transform="translate(321,421)"/>
<path d="M0 0 C-3.14511933 2.57672427 -6.32163947 4.17392493 -10.0625 5.75 C-11.62677734 6.42289063 -11.62677734 6.42289063 -13.22265625 7.109375 C-16 8 -16 8 -19 7 C-16.96630002 5.81719526 -14.92487318 4.65416773 -12.875 3.5 C-11.73804688 2.8503125 -10.60109375 2.200625 -9.4296875 1.53125 C-5.92744072 -0.03239549 -3.77825437 -0.32155356 0 0 Z " fill="#72B1E5" transform="translate(486,208)"/>
<path d="M0 0 C0.66 0.33 1.32 0.66 2 1 C0.73046875 2.46484375 -0.5390625 3.9296875 -1.80859375 5.39453125 C-4.34325107 8.81008587 -4.10641773 12.10315123 -4.0625 16.1875 C-4.05347656 17.27417969 -4.04445312 18.36085938 -4.03515625 19.48046875 C-4.02355469 20.31191406 -4.01195312 21.14335937 -4 22 C-6.84111748 17.73832377 -6.63691521 14.00433377 -6 9 C-4.62986626 5.45833355 -2.69465302 2.69465302 0 0 Z " fill="#C5CACE" transform="translate(254,432)"/>
<path d="M0 0 C0.66 0.33 1.32 0.66 2 1 C1.50628906 1.58007812 1.01257813 2.16015625 0.50390625 2.7578125 C-4.43252608 8.62891722 -4.43252608 8.62891722 -6 16 C-6.33 16 -6.66 16 -7 16 C-7.44223108 7.30278884 -7.44223108 7.30278884 -4 3 C-1.8125 1.1875 -1.8125 1.1875 0 0 Z " fill="#D4D9DD" transform="translate(348,421)"/>
<path d="M0 0 C0.71484375 1.734375 0.71484375 1.734375 1 4 C-0.43359375 6.140625 -0.43359375 6.140625 -2.4375 8.25 C-3.09621094 8.95640625 -3.75492187 9.6628125 -4.43359375 10.390625 C-4.95050781 10.92171875 -5.46742188 11.4528125 -6 12 C-7.32 11.34 -8.64 10.68 -10 10 C-9.278125 9.46375 -8.55625 8.9275 -7.8125 8.375 C-4.752158 5.7907112 -2.48779989 3.12751986 0 0 Z " fill="#B5D3EC" transform="translate(379,221)"/>
<path d="M0 0 C5.23880078 0.55145271 9.97350697 1.42922093 15 3 C14.34 4.32 13.68 5.64 13 7 C12.34 7 11.68 7 11 7 C11 6.01 11 5.02 11 4 C10.28972656 3.87882812 9.57945312 3.75765625 8.84765625 3.6328125 C7.92855469 3.46523438 7.00945312 3.29765625 6.0625 3.125 C4.68771484 2.88136719 4.68771484 2.88136719 3.28515625 2.6328125 C2.53105469 2.42398437 1.77695312 2.21515625 1 2 C0.67 1.34 0.34 0.68 0 0 Z " fill="#687682" transform="translate(477,338)"/>
<path d="M0 0 C0 0.33 0 0.66 0 1 C-2.22667765 1.67493341 -4.45645977 2.33963044 -6.6875 3 C-8.54955078 3.556875 -8.54955078 3.556875 -10.44921875 4.125 C-13.5010019 4.87703457 -15.88898362 5.19034899 -19 5 C-18.484375 4.7525 -17.96875 4.505 -17.4375 4.25 C-14.79775912 2.95698414 -14.79775912 2.95698414 -11.75 0.8125 C-7.58591842 -1.63536574 -4.61908869 -0.97243972 0 0 Z " fill="#476988" transform="translate(265,119)"/>
<path d="M0 0 C3.63 0 7.26 0 11 0 C10.67 0.99 10.34 1.98 10 3 C8.72125 3.061875 7.4425 3.12375 6.125 3.1875 C5.40570312 3.22230469 4.68640625 3.25710938 3.9453125 3.29296875 C3.30335938 3.19628906 2.66140625 3.09960938 2 3 C1.34 2.01 0.68 1.02 0 0 Z " fill="#59656C" transform="translate(516,451)"/>
<path d="M0 0 C-1.2065625 0.9590625 -1.2065625 0.9590625 -2.4375 1.9375 C-6.45503783 5.17112801 -6.34021146 6.81594715 -7 12 C-6.34 12 -5.68 12 -5 12 C-5.33 12.66 -5.66 13.32 -6 14 C-6.66 13.67 -7.32 13.34 -8 13 C-8.08121924 11.39667209 -8.13929134 9.79215974 -8.1875 8.1875 C-8.22230469 7.29417969 -8.25710938 6.40085937 -8.29296875 5.48046875 C-8 3 -8 3 -6.65625 1.1875 C-4.39235443 -0.43567041 -2.71692729 -0.2202914 0 0 Z " fill="#767E85" transform="translate(269,439)"/>
<path d="M0 0 C0.33 0.66 0.66 1.32 1 2 C0.06425758 4.38614316 -0.92700762 6.67750567 -2 9 C-2.56648302 10.31078583 -3.12919408 11.62321046 -3.6875 12.9375 C-4.120625 13.948125 -4.55375 14.95875 -5 16 C-5.33 16 -5.66 16 -6 16 C-5.64455443 9.36501601 -3.86904957 5.36812782 0 0 Z " fill="#5B98D0" transform="translate(181,178)"/>
<path d="M0 0 C0.55171875 0.25652344 1.1034375 0.51304687 1.671875 0.77734375 C-0.09243469 2.11929747 -1.8648041 3.45066043 -3.640625 4.77734375 C-4.62675781 5.51984375 -5.61289063 6.26234375 -6.62890625 7.02734375 C-9.328125 8.77734375 -9.328125 8.77734375 -12.328125 8.77734375 C-10.75934826 7.24149935 -9.17256346 5.72403044 -7.578125 4.21484375 C-6.69640625 3.36792969 -5.8146875 2.52101562 -4.90625 1.6484375 C-2.328125 -0.22265625 -2.328125 -0.22265625 0 0 Z " fill="#4690D5" transform="translate(221.328125,137.22265625)"/>
<path d="M0 0 C0 0.99 0 1.98 0 3 C-1.98 2.34 -3.96 1.68 -6 1 C-6.66 2.32 -7.32 3.64 -8 5 C-8.66 5 -9.32 5 -10 5 C-10 6.98 -10 8.96 -10 11 C-10.33 11 -10.66 11 -11 11 C-11.48076923 4.75 -11.48076923 4.75 -9.4375 1.5625 C-6.18129203 -0.5248128 -3.79004984 -0.2915423 0 0 Z " fill="#91979C" transform="translate(188,439)"/>
<path d="M0 0 C3.36111854 3.8247211 5.14816511 7.32632146 7 12 C7.33 12.66 7.66 13.32 8 14 C7.34 14.66 6.68 15.32 6 16 C5.32332002 14.75539217 4.65905281 13.50403104 4 12.25 C3.62875 11.55390625 3.2575 10.8578125 2.875 10.140625 C2 8 2 8 2 4 C1.34 4 0.68 4 0 4 C0 2.68 0 1.36 0 0 Z " fill="#5C9CD4" transform="translate(444,202)"/>
<path d="M0 0 C4.81977325 0.47252679 7.99161889 1.29163439 12 4 C13.32608822 4.68096422 14.65686601 5.35330586 16 6 C10.03435204 5.49228528 5.36190101 3.61407872 0 1 C0 0.67 0 0.34 0 0 Z " fill="#4A6883" transform="translate(357,180)"/>
<path d="M0 0 C-4.72902471 3.15268314 -9.20650322 5.52668153 -15 5 C-15.33 4.34 -15.66 3.68 -16 3 C-14.27318563 2.49193553 -12.54342021 1.99389533 -10.8125 1.5 C-9.84957031 1.2215625 -8.88664062 0.943125 -7.89453125 0.65625 C-5.14654124 0.03322392 -2.80401584 -0.12302812 0 0 Z " fill="#4A6A86" transform="translate(379,145)"/>
<path d="M0 0 C-0.78375 0.61875 -1.5675 1.2375 -2.375 1.875 C-6.1177024 4.9048067 -7.25325185 6.27059507 -8 11 C-8.33 11 -8.66 11 -9 11 C-9.48461538 4.7 -9.48461538 4.7 -7.3125 1.5625 C-4.61589191 -0.25953249 -3.18873549 -0.35430394 0 0 Z " fill="#7E858B" transform="translate(402,439)"/>
<path d="M0 0 C0.33 0.66 0.66 1.32 1 2 C-0.65 4.31 -2.3 6.62 -4 9 C-4.99 8.67 -5.98 8.34 -7 8 C-4.69 5.36 -2.38 2.72 0 0 Z " fill="#4D6E8D" transform="translate(224,180)"/>
<path d="M0 0 C-1.49097658 3.7952131 -3.75700849 5.61042731 -7 8 C-7 5 -7 5 -4.625 2.3125 C-2 0 -2 0 0 0 Z " fill="#DBE0E4" transform="translate(511,432)"/>
<path d="M0 0 C0.33 0 0.66 0 1 0 C1.27748242 1.41154099 1.52093516 2.82979799 1.75 4.25 C1.88921875 5.03890625 2.0284375 5.8278125 2.171875 6.640625 C2 9 2 9 -2 13 C-1.34 8.71 -0.68 4.42 0 0 Z " fill="#6E7880" transform="translate(498,443)"/>
<path d="M0 0 C0.66 0 1.32 0 2 0 C0.95125002 2.62187494 0.35068687 3.79371361 -2.125 5.25 C-2.74375 5.4975 -3.3625 5.745 -4 6 C-4 6.66 -4 7.32 -4 8 C-4.66 7.67 -5.32 7.34 -6 7 C-5.04882866 5.8274869 -4.08882991 4.66212985 -3.125 3.5 C-2.59132812 2.8503125 -2.05765625 2.200625 -1.5078125 1.53125 C-0.76144531 0.77328125 -0.76144531 0.77328125 0 0 Z " fill="#58748A" transform="translate(143,251)"/>
<path d="M0 0 C0.33 0.66 0.66 1.32 1 2 C-0.28062485 3.7074998 -1.61767557 5.37373596 -3 7 C-3.66 7 -4.32 7 -5 7 C-5 7.66 -5 8.32 -5 9 C-5.66 8.67 -6.32 8.34 -7 8 C-4.69 5.36 -2.38 2.72 0 0 Z " fill="#80888E" transform="translate(259,237)"/>
<path d="M0 0 C3.59391114 1.33488128 6.75490696 2.96022723 10 5 C9.67 5.66 9.34 6.32 9 7 C5.85808576 5.46395304 2.91403262 3.94268841 0 2 C0 1.34 0 0.68 0 0 Z " fill="#5695CE" transform="translate(424,184)"/>
<path d="M0 0 C0.66 0.33 1.32 0.66 2 1 C-0.31 3.97 -2.62 6.94 -5 10 C-5.33 9.01 -5.66 8.02 -6 7 C-4.78515625 5.17578125 -4.78515625 5.17578125 -3.0625 3.3125 C-2.49660156 2.68988281 -1.93070313 2.06726563 -1.34765625 1.42578125 C-0.90292969 0.95527344 -0.45820313 0.48476562 0 0 Z " fill="#5C9FD9" transform="translate(220,182)"/>
<path d="M0 0 C0.33 0.99 0.66 1.98 1 3 C-1.31 4.98 -3.62 6.96 -6 9 C-6 8.01 -6 7.02 -6 6 C-5.34 6 -4.68 6 -4 6 C-4 5.34 -4 4.68 -4 4 C-3.34 4 -2.68 4 -2 4 C-1.34 2.68 -0.68 1.36 0 0 Z " fill="#577CA0" transform="translate(415,181)"/>
<path d="M0 0 C0.99 0 1.98 0 3 0 C3 0.66 3 1.32 3 2 C6.3 2 9.6 2 13 2 C13 2.33 13 2.66 13 3 C9.04 3 5.08 3 1 3 C0.67 2.01 0.34 1.02 0 0 Z " fill="#CFD5D9" transform="translate(272,460)"/>
<path d="M0 0 C4.62 0 9.24 0 14 0 C14 0.33 14 0.66 14 1 C12.22932584 1.16834933 10.45845388 1.33461909 8.6875 1.5 C7.70136719 1.5928125 6.71523438 1.685625 5.69921875 1.78125 C3 2 3 2 0 2 C0 1.34 0 0.68 0 0 Z " fill="#E0E6EA" transform="translate(292,421)"/>
<path d="M0 0 C1.65 0 3.3 0 5 0 C5.33 0.66 5.66 1.32 6 2 C4.824375 2.433125 4.824375 2.433125 3.625 2.875 C0.90328368 3.84912254 0.90328368 3.84912254 -1 6 C-0.67 4.02 -0.34 2.04 0 0 Z " fill="#717B83" transform="translate(422,324)"/>
<path d="M0 0 C1.98 0.66 3.96 1.32 6 2 C6 2.66 6 3.32 6 4 C6.99 4.33 7.98 4.66 9 5 C8.01 5.495 8.01 5.495 7 6 C3.9375 4.75 3.9375 4.75 1 3 C0.67 2.01 0.34 1.02 0 0 Z " fill="#4A80B3" transform="translate(433,149)"/>
<path d="M0 0 C1.9375 0.8125 1.9375 0.8125 4 2 C4.33 2.99 4.66 3.98 5 5 C2.36 5 -0.28 5 -3 5 C-3 4.67 -3 4.34 -3 4 C-1.35 4 0.3 4 2 4 C1.34 2.68 0.68 1.36 0 0 Z " fill="#DDE3E9" transform="translate(236,388)"/>
<path d="M0 0 C0.66 0 1.32 0 2 0 C0.55746343 3.36591866 -1.33264727 5.51047079 -4 8 C-4.66 7.67 -5.32 7.34 -6 7 C-5.04882866 5.8274869 -4.08882991 4.66212985 -3.125 3.5 C-2.59132813 2.8503125 -2.05765625 2.200625 -1.5078125 1.53125 C-0.76144531 0.77328125 -0.76144531 0.77328125 0 0 Z " fill="#5B80A0" transform="translate(404,193)"/>
<path d="M0 0 C1.32 0 2.64 0 4 0 C4 0.66 4 1.32 4 2 C5.32 2 6.64 2 8 2 C8 2.66 8 3.32 8 4 C5.69 3.67 3.38 3.34 1 3 C0.67 2.01 0.34 1.02 0 0 Z " fill="#4579AA" transform="translate(334,129)"/>
</svg>
